<svg width="687" height="687" viewBox="0 0 687 687" fill="none" xmlns="http://www.w3.org/2000/svg">
<g clip-path="url(#clip0_118_95)">
<g clip-path="url(#clip1_118_95)">
<path d="M487.5 687C552.394 687 605 634.394 605 569.5C605 504.607 552.394 452 487.5 452C422.607 452 370 504.607 370 569.5C370 634.394 422.607 687 487.5 687Z" fill="#CBC2BF"/>
<path d="M583.145 566.249C583.145 579.213 578.445 588.065 569.006 592.765C566.264 594.136 557.608 596.016 543.078 598.366C533.638 599.933 528.938 603.575 528.938 609.254V633.107C528.938 634.086 529.252 637.141 529.839 642.233L530.74 651.672C530.74 654.609 530.035 659.427 528.664 666.124C524.943 666.908 520.596 667.808 515.7 668.788C514.133 662.873 513.35 658.878 513.35 656.685C513.35 655.706 513.585 654.218 514.094 652.259C514.564 650.301 514.838 648.813 514.838 647.833C514.838 646.463 513.624 642.624 511.157 636.358H506.574C505.987 637.337 505.752 638.629 505.948 640.196C506.731 643.525 507.044 646.384 506.848 648.734C503.519 651.084 498.898 654.257 492.983 658.173C491.613 657.782 491.103 657.586 491.495 657.586V636.671C491.103 635.692 490.124 635.3 488.558 635.496H485.033L481.508 663.187C478.766 663.383 475.398 663.383 471.481 663.187C470.11 656.724 467.643 647.089 464.118 634.321H461.768C459.613 641.214 458.438 644.935 458.243 645.523C458.243 646.306 458.478 647.833 458.987 650.105C459.457 652.377 459.731 653.904 459.731 654.688C459.731 655.275 459.535 656.763 459.143 659.113L458.243 666.203C457.851 666.594 457.342 666.79 456.754 666.79C450.879 666.79 446.923 665.302 444.965 662.364C443.007 659.427 442.224 655.275 442.615 649.988L444.965 614.62C444.965 614.033 445.161 613.249 445.553 612.27C445.944 611.291 446.14 610.586 446.14 610.194C446.14 608.628 444.456 605.494 441.127 600.755C440.539 600.559 437.484 599.854 432.001 598.679C428.672 597.896 422.092 596.525 412.261 594.567C398.709 592.021 391.934 581.133 391.934 561.863C391.934 533.193 403.723 509.301 427.301 490.266C428.28 495.553 429.964 502.643 432.314 511.494C434.077 511.886 437.915 512.787 443.79 514.158C444.965 514.549 450.958 516.703 461.768 520.659C456.245 517.33 449.078 511.925 440.265 504.444C436.936 500.528 435.252 493.948 435.252 484.704C435.252 482.55 438.973 480.004 446.453 477.028C453.112 474.286 458.164 472.719 461.493 472.328C472.108 470.957 480.254 470.252 485.973 470.252C510.53 470.252 530.388 476.558 545.506 489.13C540.61 494.848 532.15 500.919 520.165 507.382C524.904 507.578 531.758 505.737 540.806 501.781C549.853 497.864 553.692 495.906 552.282 495.906C553.848 495.906 557.021 499.039 561.721 505.345C565.246 510.045 568.105 514.275 570.259 518.035C576.526 529.237 580.756 541.339 582.949 554.303C582.949 558.847 583.027 562.058 583.262 564.017V566.367L583.145 566.249ZM470.267 571.537C470.267 563.077 466.585 555.087 459.222 547.528C451.858 539.968 443.947 536.169 435.487 536.169C428.006 536.169 421.426 539.342 415.747 545.648C410.029 551.993 407.209 559.003 407.209 566.719C407.209 573.456 410.459 577.803 416.922 579.762C421.034 580.937 426.831 581.642 434.312 581.838H450.527C463.687 582.033 470.267 578.587 470.267 571.537ZM502.383 608.079V598.953C501.013 596.408 499.642 593.744 498.271 591.003C497.096 587.086 494.942 581.563 491.769 574.513L488.518 608.98C488.518 611.722 487.931 613.093 486.756 613.093C485.973 613.093 485.385 612.897 484.993 612.505C483.623 591.668 482.918 582.66 482.918 585.402V575.101C482.526 574.513 482.056 574.2 481.468 574.2C474.771 581.093 471.442 592.178 471.442 607.492C471.442 615.952 472.225 621.161 473.792 623.119C475.358 622.728 477.121 622.023 479.079 621.043C479.863 620.652 482.134 620.456 485.855 620.456C489.576 620.456 494.119 621.631 499.407 623.981C501.365 623.981 502.344 618.693 502.344 608.079M568.967 567.033C568.967 559.121 566.029 552.071 560.115 545.843C554.201 539.616 547.425 536.522 539.788 536.522C531.523 536.522 523.808 540.282 516.64 547.88C509.473 555.439 505.869 563.351 505.869 571.615C505.869 578.508 509.198 581.916 515.896 581.916H549.775C562.543 581.72 568.927 576.785 568.927 567.072" fill="#130C0E"/>
</g>
<g clip-path="url(#clip2_118_95)">
<path d="M343.932 235C408.825 235 461.432 182.394 461.432 117.5C461.432 52.6066 408.825 0 343.932 0C279.038 0 226.432 52.6066 226.432 117.5C226.432 182.394 279.038 235 343.932 235Z" fill="#FFFBD5"/>
<path d="M456.026 134.107C440.595 125.412 430.725 121.064 426.377 121.064C423.205 121.064 420.737 123.493 418.975 128.349C417.212 133.206 413.648 135.595 408.321 135.595C406.128 135.595 401.702 134.812 394.966 133.245C391.206 138.963 389.326 142.645 389.326 144.212C389.326 146.405 390.931 148.951 394.182 151.928C397.433 154.904 400.136 156.353 402.368 156.353C403.778 156.353 405.697 156.079 408.126 155.453C410.554 154.865 412.16 154.552 412.982 154.552C415.411 154.552 416.625 159.017 416.625 167.908C416.625 176.407 414.666 189.449 410.711 207.035C405.58 186.864 400.136 176.798 394.417 176.798C393.634 176.798 391.989 177.386 389.521 178.6C387.054 179.775 385.213 180.363 384.038 180.363C378.32 180.363 373.189 175.114 368.606 164.657C359.52 166.028 354.976 170.688 354.976 178.6C354.976 182.556 356.817 185.728 360.46 188.078C364.102 190.468 365.943 192.152 365.943 193.131C365.943 198.458 358.149 206.683 342.521 217.728C334.218 223.642 328.5 227.793 325.327 230.183C328.069 226.618 330.85 221.997 333.631 216.239C336.803 209.737 338.37 204.685 338.37 201.121C338.37 199.163 336.098 196.382 331.555 192.818C327.011 189.253 324.74 185.493 324.74 181.538C324.74 178.169 325.915 174.018 328.304 169.083C325.719 166.106 322.664 164.618 319.1 164.618C311.188 164.618 307.232 167.203 307.232 172.333C307.232 168.769 307.232 171.433 307.232 180.323C307.428 186.864 302.493 190.115 292.388 190.115C284.672 190.115 271.747 188.313 253.535 184.788C274.097 179.658 284.359 173.704 284.359 167.007C284.359 167.79 283.967 165.44 283.184 159.878C282.401 153.768 286.748 148.207 296.227 143.272C294.464 134.185 289.725 129.642 282.009 129.642C280.834 129.642 278.641 131.718 275.507 135.869C272.335 140.021 269.397 142.097 266.617 142.097C261.877 142.097 255.728 136.966 248.247 126.665C244.683 121.534 239.239 113.936 231.954 103.831C236.497 106.22 241.041 108.57 245.584 110.959C251.498 113.74 256.277 115.111 259.802 115.111C262.582 115.111 265.285 112.683 267.948 107.826C270.612 102.969 274.137 100.541 278.484 100.541C279.072 100.541 283.027 101.716 290.352 104.105C294.112 98.3867 295.992 94.1175 295.992 91.3367C295.992 88.9475 294.542 86.245 291.683 83.19C288.824 80.135 286.2 78.6075 283.811 78.6075C282.832 78.6075 281.304 78.9209 279.228 79.5084C277.152 80.0959 275.625 80.4092 274.646 80.4092C271.082 80.4092 269.319 75.9442 269.319 67.0534C269.319 64.6642 271.591 51.1517 276.134 26.4375C275.938 29.4142 277.231 34.9367 279.972 43.0442C283.341 52.9142 287.297 57.8884 291.84 57.8884C292.623 57.8884 294.229 57.3009 296.579 56.1259C298.968 54.9509 300.809 54.3634 302.219 54.3634C306.762 54.3634 310.522 56.9484 313.499 62.0792L317.964 70.0692C322.116 70.0692 325.562 68.5809 328.343 65.6434C331.124 62.6667 332.495 59.1025 332.495 54.9509C332.495 50.6034 330.654 47.2742 327.011 45.0025C323.33 42.7309 321.528 41.0075 321.528 39.8325C321.528 35.6809 328.069 28.67 341.111 18.8C351.569 10.8884 358.423 6.26669 361.556 4.85669C353.057 16.3325 348.788 24.7142 348.788 30.0409C348.788 32.8217 350.472 35.7592 353.841 38.9317C357.992 42.6917 360.381 45.355 360.969 46.9217C362.927 51.465 362.731 57.6925 360.381 65.6042C365.708 69.3642 369.781 71.2442 372.523 71.2442C378.241 71.2442 381.101 68.2675 381.101 62.3534C381.101 61.7659 380.866 59.8859 380.356 56.7134C379.847 53.5409 379.73 51.7784 379.926 51.3867C380.709 48.6059 386.153 47.235 396.219 47.235C402.564 47.235 415.685 48.9975 435.66 52.5617C431.312 53.7367 424.771 55.5384 416.076 57.8884C408.165 60.2775 404.209 62.9409 404.209 65.8784C404.209 67.2492 404.718 69.6384 405.697 73.0067C406.676 76.375 407.186 78.8425 407.186 80.4092C407.186 83.19 405.423 85.7359 401.859 88.125L391.793 95.2534C394.182 99.6009 395.749 102.186 396.532 102.969C398.491 105.358 401.193 106.533 404.522 106.533C406.911 106.533 409.066 104.458 411.063 100.306C413.021 96.1542 416.194 94.0784 420.541 94.0784C425.868 94.0784 431.9 99.0134 438.636 108.923C442.396 114.484 448.232 122.866 456.105 134.146M390.305 116.952C390.305 104.301 385.644 93.3342 376.361 84.0517C367.079 74.7692 356.112 70.1084 343.461 70.1084C330.615 70.1084 319.531 74.6909 310.248 83.895C300.966 93.0992 296.227 104.105 296.031 116.952C295.835 129.603 300.535 140.53 310.131 149.695C319.726 158.899 330.85 163.482 343.501 163.482C356.935 163.482 368.176 159.095 377.145 150.283C386.153 141.509 390.54 130.386 390.344 116.952M385.879 116.952C385.879 129.015 381.845 139.003 373.737 146.875C365.63 154.787 355.564 158.743 343.501 158.743C331.829 158.743 321.841 154.708 313.577 146.601C305.274 138.493 301.122 128.623 301.122 116.952C301.122 105.476 305.313 95.645 313.734 87.4592C322.155 79.2734 332.064 75.1609 343.54 75.1609C355.016 75.1609 364.925 79.3125 373.346 87.6159C381.727 95.9192 385.957 105.711 385.957 116.952" fill="#211D15"/>
</g>
<g clip-path="url(#clip3_118_95)">
<path d="M568.795 418.431C633.688 418.431 686.295 365.825 686.295 300.931C686.295 236.038 633.688 183.431 568.795 183.431C503.901 183.431 451.295 236.038 451.295 300.931C451.295 365.825 503.901 418.431 568.795 418.431Z" fill="#AAE0FA"/>
<path d="M608.949 379.21C597.7 390.659 583.843 396.382 567.381 396.382C548.906 396.382 534.25 390.06 523.409 377.409C513.167 365.361 508.048 350.004 508.048 331.334C508.048 311.257 516.783 288.36 534.25 262.659C548.499 241.582 565.266 223.108 584.544 207.246C581.731 220.098 580.331 229.23 580.331 234.651C580.331 247.104 584.241 259.249 592.071 271.096C601.711 285.149 609.034 295.599 614.059 302.417C621.89 314.269 625.805 325.811 625.805 337.048C625.805 353.717 620.186 367.77 608.947 379.211M608.644 314.911C605.634 308.186 602.118 303.72 598.102 301.508C598.704 302.716 599.007 304.422 599.007 306.631C599.007 310.849 597.804 316.869 595.39 324.699L591.48 336.747C591.48 343.774 594.986 347.289 602.017 347.289C609.443 347.289 613.161 342.366 613.161 332.529C613.161 327.514 611.657 321.644 608.644 314.909" fill="#061922"/>
</g>
<g clip-path="url(#clip4_118_95)">
<path d="M195.5 687C260.394 687 313 634.394 313 569.5C313 504.607 260.394 452 195.5 452C130.607 452 78 504.607 78 569.5C78 634.394 130.607 687 195.5 687Z" fill="#F9AA8F"/>
<path d="M288.973 608.608C280.2 629.562 262.731 640.02 236.647 640.02C231.868 640.02 226.659 640.607 221.097 641.822C212.716 643.623 208.525 646.13 208.525 649.302C208.525 650.282 209.23 651.457 210.601 652.749C212.011 654.042 213.186 654.707 214.204 654.707C209.23 654.707 212.598 654.864 224.387 655.138C236.176 655.452 243.54 655.569 246.516 655.569C229.166 665.752 200.143 670.413 159.449 669.63C146.093 669.434 134.617 663.559 125.061 651.966C115.661 640.999 111 628.74 111 615.188C111 600.853 115.817 588.633 125.531 578.528C135.205 568.462 147.229 563.41 161.564 563.41C164.737 563.41 169.006 564.115 174.293 565.486C179.581 566.896 183.106 567.562 184.907 567.562C192.271 567.562 201.475 564.507 212.442 558.436C223.408 552.365 228.617 549.31 227.991 549.31C225.993 570.264 219.022 584.325 207.037 591.492C198.459 596.467 194.19 601.362 194.19 606.141C194.19 609.117 195.992 611.546 199.556 613.308C202.337 614.718 205.431 615.423 208.838 615.423C214.008 615.423 219.1 612.251 224.113 605.867C229.087 599.482 231.281 593.686 230.693 588.516C230.106 582.523 230.497 575.356 231.907 566.974C232.299 564.585 233.748 561.647 236.255 558.162C238.762 554.676 240.994 552.522 242.991 551.738C242.991 553.54 242.365 556.517 241.033 560.707C239.741 564.898 239.075 567.992 239.075 569.99C239.075 574.377 240.25 577.784 242.678 580.173C246.281 578.763 249.454 574.298 252.235 566.7C254.624 560.903 256.034 555.342 256.426 549.937C248.044 549.545 240.015 545.746 232.338 538.578C224.662 531.411 220.823 523.617 220.823 515.235C220.823 513.825 221.019 512.454 221.411 511.044C222.586 512.846 224.387 515.627 226.777 519.426C230.184 524.4 232.769 526.907 234.571 526.907C236.96 526.907 238.174 524.4 238.174 519.426C238.174 513.042 236.49 507.245 233.082 502.075C229.283 495.887 224.387 492.792 218.434 492.792C215.653 492.792 211.462 494.281 205.862 497.297C200.261 500.273 195.169 501.801 190.587 501.801C189.177 501.801 182.988 499.999 172.022 496.396C191.37 493.223 201.044 490.325 201.044 487.74C201.044 480.964 187.767 476.382 161.251 473.992C158.666 473.797 153.887 473.405 146.877 472.778C147.66 471.799 153.339 470.702 163.914 469.488C172.883 468.509 179.189 468 182.753 468C230.223 468 260.5 491.03 273.111 537.129C275.304 535.327 276.401 532.272 276.401 528.042C276.401 522.598 274.795 515.705 271.622 507.402C270.408 504.19 268.528 499.333 265.943 492.832C282.276 513.668 290.461 533.408 290.461 552.052C290.461 561.882 288.151 570.773 283.568 578.802C280.591 584.207 274.991 591.14 266.805 599.561C258.619 607.982 253.057 614.483 250.041 619.105C261.008 616.128 268.215 613.817 271.583 612.212C279.142 608.843 286.036 603.752 292.224 596.937C292.224 599.522 291.127 603.438 288.934 608.608M158.548 491.03C158.548 494.633 156.551 496.905 152.556 497.923L144.762 499.137C141.981 500.547 137.868 506.031 132.502 515.587C131.915 512.611 131.014 508.42 129.8 503.015C127.998 503.211 125.022 504.817 120.831 507.793C119.029 509.203 116.131 511.279 112.136 514.06C113.35 506.892 117.306 499.607 124.121 492.205C131.288 484.019 138.299 479.946 145.075 479.946C154.044 479.946 158.548 483.627 158.548 491.03ZM210.601 518.564C210.601 521.972 208.76 524.792 205.078 527.102C201.397 529.413 197.754 530.549 194.151 530.549C189.372 530.549 185.064 527.847 181.304 522.481C176.722 515.901 172.022 511.632 167.243 509.595C168.222 508.616 169.437 508.107 170.847 508.107C172.648 508.107 175.664 509.517 179.972 512.297C184.242 515.078 186.983 516.488 188.197 516.488C189.177 516.488 190.822 515.078 193.132 512.297C195.443 509.517 197.95 508.107 200.77 508.107C207.35 508.107 210.64 511.592 210.64 518.564" fill="#200000"/>
</g>
<g clip-path="url(#clip5_118_95)">
<path d="M118.932 418.431C183.825 418.431 236.432 365.825 236.432 300.931C236.432 236.038 183.825 183.431 118.932 183.431C54.0382 183.431 1.43164 236.038 1.43164 300.931C1.43164 365.825 54.0382 418.431 118.932 418.431Z" fill="#9BD3AE"/>
<path d="M220.556 315.346C220.556 319.263 219.028 322.788 216.013 325.921C212.997 329.055 209.511 330.621 205.594 330.621C199.328 330.621 194.745 327.684 191.808 321.809L178.021 321.221C175.083 321.221 169.287 322.514 160.709 325.06C151.505 327.605 146.217 329.642 144.847 331.209C142.692 333.559 140.93 339.042 139.559 347.659C138.384 354.709 137.797 359.879 137.797 363.208C137.797 368.495 138.619 372.373 140.303 374.801C141.987 377.23 145.395 379.305 150.565 380.95C155.735 382.595 158.947 383.535 160.122 383.731C160.905 383.731 162.158 383.653 163.96 383.457L167.485 383.457C170.031 383.457 172.655 383.849 175.397 384.632C179.313 385.807 180.997 387.374 180.41 389.332C177.668 388.94 172.89 389.528 166.036 391.095L174.261 395.207C174.261 397.557 170.932 398.732 164.273 398.732C162.511 398.732 160.122 398.34 157.067 397.557C154.051 396.774 152.014 396.382 151.035 396.382L147.236 396.382C147.04 398.34 146.452 401.278 145.473 405.195C142.144 404.999 138.227 403.04 133.723 399.32C129.219 395.599 126.399 393.758 125.224 393.758C124.049 393.758 122.365 395.638 120.25 399.32C118.096 403.04 117.038 405.586 117.038 406.957C114.492 405.586 112.338 403.04 110.576 399.32C109.792 396.774 108.931 394.228 107.952 391.682C105.993 391.878 102.39 395.99 97.1023 404.02L95.614 404.02C95.2223 403.432 93.734 399.32 91.2273 391.682C85.1565 389.724 79.4773 388.745 74.1898 388.745C71.6439 388.745 67.7273 389.332 62.4398 390.507L54.2147 389.92C55.3897 388.745 58.7973 386.512 64.4764 383.183C71.1348 379.266 76.2265 377.308 79.7515 377.308C80.339 377.308 81.1223 377.425 82.1015 377.621C83.0806 377.817 83.864 377.935 84.4515 377.935C85.8223 377.935 88.0156 377.19 91.0706 375.741C94.0865 374.292 95.849 372.96 96.3582 371.785C96.8673 370.61 97.1023 367.555 97.1023 362.699C97.1023 351.536 94.1648 343.233 88.2898 337.75C83.1981 332.854 74.7773 329.329 63.0273 327.175C59.8939 338.337 51.0814 343.899 36.6289 343.899C31.9289 343.899 27.2289 341.079 22.5288 335.4C17.7113 329.603 15.3613 324.433 15.3613 319.733C15.3613 312.487 18.3772 306.534 24.448 301.834C19.5522 296.742 17.1238 291.572 17.1238 286.285C17.1238 281.389 18.6513 277.08 21.6672 273.36C24.683 269.639 28.678 267.485 33.5739 266.897C33.1822 260.63 35.2189 256.322 39.723 253.972C37.5689 251.818 36.5114 248.019 36.5114 242.535C36.5114 236.073 38.6655 230.707 42.9739 226.399C47.2822 222.09 52.6481 219.936 59.1106 219.936C66.1606 219.936 71.9181 222.404 76.4223 227.299C82.1015 207.912 94.3215 198.238 113.122 198.238C122.913 198.238 131.53 202.154 138.972 209.988C141.713 212.925 143.084 214.492 143.084 214.688C140.734 214.688 141.909 214.257 146.609 213.356C151.309 212.494 154.717 212.024 156.871 212.024C164.508 212.024 171.245 214.844 177.12 220.524C182.212 225.615 185.737 232.078 187.695 239.911C189.066 240.107 191.22 240.695 194.158 241.674C198.466 243.828 200.62 247.549 200.62 252.836C200.62 253.815 199.837 255.695 198.27 258.398C210.803 265.448 217.07 275.24 217.07 287.773C217.07 291.298 215.699 296.194 212.958 302.46C218.049 305.398 220.595 309.706 220.595 315.385M99.6482 328.31L99.6482 324.511C99.6482 320.007 97.4548 315.895 93.029 312.174C88.6423 308.453 84.1773 306.612 79.6731 306.612C74.1898 306.612 69.0981 307.865 64.3981 310.411C74.7773 309.824 86.5273 315.816 99.609 328.31M94.3215 291.925C91.384 288.595 88.8381 285.188 86.684 281.663C78.459 283.817 74.3464 286.245 74.3464 288.987C76.6965 288.791 80.104 289.222 84.6081 290.319C89.1123 291.415 92.324 291.925 94.3215 291.925ZM112.221 282.838L112.221 269.913C107.521 269.13 104.661 268.738 103.721 268.738L103.721 273.125L112.221 282.799M150.369 274.574C148.019 273.595 143.632 271.636 137.17 268.699L137.17 293.961C146.374 288.674 150.761 282.211 150.369 274.574ZM166.506 309.236L160.043 301.325C156.127 304.066 152.171 306.847 148.137 309.706C144.102 312.526 140.656 315.738 137.718 319.263C146.531 314.563 156.127 311.234 166.467 309.275" fill="#00160B"/>
</g>
</g>
<defs>
<clipPath id="clip0_118_95">
<rect width="687" height="687" fill="white"/>
</clipPath>
<clipPath id="clip1_118_95">
<rect width="235" height="235" fill="white" transform="translate(370 452)"/>
</clipPath>
<clipPath id="clip2_118_95">
<rect width="235" height="235" fill="white" transform="translate(226.432)"/>
</clipPath>
<clipPath id="clip3_118_95">
<rect width="235" height="235" fill="white" transform="translate(548.544 136) rotate(38)"/>
</clipPath>
<clipPath id="clip4_118_95">
<rect width="235" height="235" fill="white" transform="translate(78 452)"/>
</clipPath>
<clipPath id="clip5_118_95">
<rect width="235" height="235" fill="white" transform="translate(98.6807 136) rotate(38)"/>
</clipPath>
</defs>
</svg>
