<svg width="547" height="547" viewBox="0 0 547 547" fill="none" xmlns="http://www.w3.org/2000/svg">
<g clip-path="url(#clip0_118_130)">
<g clip-path="url(#clip1_118_130)">
<path d="M273.5 160C317.683 160 353.5 124.183 353.5 80C353.5 35.8172 317.683 0 273.5 0C229.317 0 193.5 35.8172 193.5 80C193.5 124.183 229.317 160 273.5 160Z" fill="#FFFBD5"/>
<path d="M349.82 91.3065C339.313 85.3865 332.593 82.4265 329.633 82.4265C327.473 82.4265 325.793 84.0798 324.593 87.3865C323.393 90.6932 320.967 92.3198 317.34 92.3198C315.847 92.3198 312.833 91.7865 308.247 90.7198C305.687 94.6132 304.407 97.1198 304.407 98.1865C304.407 99.6798 305.5 101.413 307.713 103.44C309.927 105.466 311.767 106.453 313.287 106.453C314.247 106.453 315.553 106.266 317.207 105.84C318.86 105.44 319.953 105.226 320.513 105.226C322.167 105.226 322.993 108.266 322.993 114.32C322.993 120.106 321.66 128.986 318.967 140.96C315.473 127.226 311.767 120.373 307.873 120.373C307.34 120.373 306.22 120.773 304.54 121.6C302.86 122.4 301.607 122.8 300.807 122.8C296.913 122.8 293.42 119.226 290.3 112.106C284.113 113.04 281.02 116.213 281.02 121.6C281.02 124.293 282.273 126.453 284.753 128.053C287.233 129.68 288.486 130.826 288.486 131.493C288.486 135.12 283.18 140.72 272.54 148.24C266.886 152.266 262.993 155.093 260.833 156.72C262.7 154.293 264.593 151.146 266.486 147.226C268.646 142.8 269.713 139.36 269.713 136.933C269.713 135.6 268.166 133.706 265.073 131.28C261.98 128.853 260.433 126.293 260.433 123.6C260.433 121.306 261.233 118.48 262.86 115.12C261.1 113.093 259.02 112.08 256.593 112.08C251.206 112.08 248.513 113.84 248.513 117.333C248.513 114.906 248.513 116.72 248.513 122.773C248.646 127.226 245.286 129.44 238.406 129.44C233.153 129.44 224.353 128.213 211.953 125.813C225.953 122.32 232.94 118.266 232.94 113.706C232.94 114.24 232.673 112.64 232.14 108.853C231.606 104.693 234.566 100.906 241.02 97.5465C239.82 91.3598 236.593 88.2665 231.34 88.2665C230.54 88.2665 229.046 89.6798 226.913 92.5065C224.753 95.3332 222.753 96.7465 220.86 96.7465C217.633 96.7465 213.446 93.2532 208.353 86.2398C205.926 82.7465 202.22 77.5732 197.26 70.6932C200.353 72.3199 203.446 73.9199 206.54 75.5465C210.566 77.4399 213.82 78.3732 216.22 78.3732C218.113 78.3732 219.953 76.7199 221.766 73.4132C223.58 70.1065 225.98 68.4532 228.94 68.4532C229.34 68.4532 232.033 69.2532 237.02 70.8799C239.58 66.9865 240.86 64.0799 240.86 62.1865C240.86 60.5599 239.873 58.7199 237.926 56.6399C235.98 54.5599 234.193 53.5199 232.566 53.5199C231.9 53.5199 230.86 53.7332 229.446 54.1332C228.033 54.5332 226.993 54.7466 226.326 54.7466C223.9 54.7466 222.7 51.7066 222.7 45.6532C222.7 44.0266 224.246 34.8266 227.34 17.9999C227.206 20.0266 228.086 23.7866 229.953 29.3066C232.246 36.0266 234.94 39.4133 238.033 39.4133C238.566 39.4133 239.66 39.0133 241.26 38.2133C242.886 37.4133 244.14 37.0133 245.1 37.0133C248.193 37.0133 250.753 38.7733 252.78 42.2666L255.82 47.7066C258.646 47.7066 260.993 46.6932 262.886 44.6932C264.78 42.6666 265.713 40.2399 265.713 37.4133C265.713 34.4533 264.46 32.1866 261.98 30.6399C259.473 29.0933 258.246 27.9199 258.246 27.1199C258.246 24.2933 262.7 19.5199 271.58 12.8C278.7 7.4133 283.366 4.26664 285.5 3.30664C279.713 11.12 276.806 16.8266 276.806 20.4533C276.806 22.3466 277.953 24.3466 280.246 26.5066C283.073 29.0666 284.7 30.8799 285.1 31.9466C286.433 35.0399 286.3 39.2799 284.7 44.6666C288.326 47.2266 291.1 48.5066 292.966 48.5066C296.86 48.5066 298.807 46.4799 298.807 42.4532C298.807 42.0532 298.647 40.7732 298.3 38.6133C297.953 36.4533 297.873 35.2533 298.007 34.9866C298.54 33.0933 302.247 32.1599 309.1 32.1599C313.42 32.1599 322.353 33.3599 335.953 35.7866C332.993 36.5866 328.54 37.8133 322.62 39.4133C317.233 41.0399 314.54 42.8532 314.54 44.8532C314.54 45.7866 314.887 47.4132 315.553 49.7066C316.22 51.9999 316.567 53.6799 316.567 54.7466C316.567 56.6399 315.367 58.3732 312.94 59.9999L306.087 64.8532C307.713 67.8132 308.78 69.5732 309.313 70.1065C310.647 71.7332 312.487 72.5332 314.753 72.5332C316.38 72.5332 317.847 71.1199 319.207 68.2932C320.54 65.4665 322.7 64.0532 325.66 64.0532C329.287 64.0532 333.393 67.4132 337.98 74.1599C340.54 77.9465 344.513 83.6532 349.873 91.3332M305.073 79.6265C305.073 71.0132 301.9 63.5465 295.58 57.2266C289.26 50.9066 281.793 47.7332 273.18 47.7332C264.433 47.7332 256.886 50.8532 250.566 57.1199C244.246 63.3865 241.02 70.8799 240.886 79.6265C240.753 88.2398 243.953 95.6798 250.486 101.92C257.02 108.186 264.593 111.306 273.206 111.306C282.353 111.306 290.006 108.32 296.113 102.32C302.247 96.3465 305.233 88.7732 305.1 79.6265M302.06 79.6265C302.06 87.8398 299.313 94.6398 293.793 99.9998C288.273 105.386 281.42 108.08 273.206 108.08C265.26 108.08 258.46 105.333 252.833 99.8131C247.18 94.2932 244.353 87.5732 244.353 79.6265C244.353 71.8132 247.206 65.1199 252.94 59.5466C258.673 53.9732 265.42 51.1732 273.233 51.1732C281.046 51.1732 287.793 53.9999 293.527 59.6532C299.233 65.3065 302.113 71.9732 302.113 79.6265" fill="#211D15"/>
</g>
<g clip-path="url(#clip2_118_130)">
<path d="M80 317.5C124.183 317.5 160 281.683 160 237.5C160 193.317 124.183 157.5 80 157.5C35.8172 157.5 0 193.317 0 237.5C0 281.683 35.8172 317.5 80 317.5Z" fill="#AAE0FA"/>
<path d="M107.978 291.452C100.319 299.247 90.8852 303.143 79.6772 303.143C67.0986 303.143 57.12 298.839 49.7387 290.226C42.7654 282.023 39.28 271.567 39.28 258.855C39.28 245.186 45.2272 229.596 57.12 212.098C66.8213 197.747 78.2372 185.17 91.3625 174.37C89.4473 183.12 88.4937 189.338 88.4937 193.029C88.4937 201.507 91.1561 209.776 96.4873 217.842C103.05 227.41 108.037 234.525 111.458 239.167C116.789 247.236 119.455 255.095 119.455 262.746C119.455 274.095 115.629 283.663 107.977 291.452M107.771 247.674C105.721 243.095 103.328 240.055 100.593 238.548C101.003 239.371 101.209 240.532 101.209 242.036C101.209 244.908 100.39 249.007 98.747 254.338L96.0846 262.541C96.0846 267.325 98.4718 269.719 103.259 269.719C108.315 269.719 110.846 266.367 110.846 259.669C110.846 256.255 109.822 252.258 107.771 247.672" fill="#061922"/>
</g>
<g clip-path="url(#clip3_118_130)">
<path d="M397 547C441.183 547 477 511.183 477 467C477 422.817 441.183 387 397 387C352.817 387 317 422.817 317 467C317 511.183 352.817 547 397 547Z" fill="#CBC2BF"/>
<path d="M462.119 464.787C462.119 473.613 458.919 479.64 452.493 482.84C450.626 483.773 444.733 485.053 434.839 486.653C428.413 487.72 425.213 490.2 425.213 494.067V510.307C425.213 510.973 425.426 513.053 425.826 516.52L426.439 522.947C426.439 524.947 425.959 528.227 425.026 532.787C422.493 533.32 419.533 533.933 416.2 534.6C415.133 530.573 414.6 527.853 414.6 526.36C414.6 525.693 414.76 524.68 415.106 523.347C415.426 522.013 415.613 521 415.613 520.333C415.613 519.4 414.786 516.787 413.106 512.52H409.986C409.586 513.187 409.426 514.067 409.56 515.133C410.093 517.4 410.306 519.347 410.173 520.947C407.906 522.547 404.76 524.707 400.733 527.373C399.8 527.107 399.453 526.973 399.72 526.973V512.733C399.453 512.067 398.786 511.8 397.72 511.933H395.32L392.92 530.787C391.053 530.92 388.76 530.92 386.093 530.787C385.16 526.387 383.48 519.827 381.08 511.133H379.48C378.013 515.827 377.213 518.36 377.08 518.76C377.08 519.293 377.24 520.333 377.586 521.88C377.906 523.427 378.093 524.467 378.093 525C378.093 525.4 377.96 526.413 377.693 528.013L377.08 532.84C376.813 533.107 376.466 533.24 376.066 533.24C372.066 533.24 369.373 532.227 368.04 530.227C366.706 528.227 366.173 525.4 366.44 521.8L368.04 497.72C368.04 497.32 368.173 496.787 368.44 496.12C368.706 495.453 368.84 494.973 368.84 494.707C368.84 493.64 367.693 491.507 365.426 488.28C365.026 488.147 362.946 487.667 359.213 486.867C356.946 486.333 352.466 485.4 345.773 484.067C336.546 482.333 331.933 474.92 331.933 461.8C331.933 442.28 339.96 426.013 356.013 413.053C356.68 416.653 357.826 421.48 359.426 427.507C360.626 427.773 363.24 428.387 367.24 429.32C368.04 429.587 372.12 431.053 379.48 433.747C375.72 431.48 370.84 427.8 364.84 422.707C362.573 420.04 361.426 415.56 361.426 409.267C361.426 407.8 363.96 406.067 369.053 404.04C373.586 402.173 377.026 401.107 379.293 400.84C386.52 399.907 392.066 399.427 395.96 399.427C412.68 399.427 426.199 403.72 436.493 412.28C433.159 416.173 427.399 420.307 419.239 424.707C422.466 424.84 427.133 423.587 433.293 420.893C439.453 418.227 442.066 416.893 441.106 416.893C442.173 416.893 444.333 419.027 447.533 423.32C449.933 426.52 451.879 429.4 453.346 431.96C457.613 439.587 460.493 447.827 461.986 456.653C461.986 459.747 462.039 461.933 462.199 463.267V464.867L462.119 464.787ZM385.266 468.387C385.266 462.627 382.76 457.187 377.746 452.04C372.733 446.893 367.346 444.307 361.586 444.307C356.493 444.307 352.013 446.467 348.146 450.76C344.253 455.08 342.333 459.853 342.333 465.107C342.333 469.693 344.546 472.653 348.946 473.987C351.746 474.787 355.693 475.267 360.786 475.4H371.826C380.786 475.533 385.266 473.187 385.266 468.387ZM407.133 493.267V487.053C406.2 485.32 405.266 483.507 404.333 481.64C403.533 478.973 402.066 475.213 399.906 470.413L397.693 493.88C397.693 495.747 397.293 496.68 396.493 496.68C395.96 496.68 395.56 496.547 395.293 496.28C394.36 482.093 393.88 475.96 393.88 477.827V470.813C393.613 470.413 393.293 470.2 392.893 470.2C388.333 474.893 386.066 482.44 386.066 492.867C386.066 498.627 386.6 502.173 387.666 503.507C388.733 503.24 389.933 502.76 391.266 502.093C391.8 501.827 393.346 501.693 395.88 501.693C398.413 501.693 401.506 502.493 405.106 504.093C406.44 504.093 407.106 500.493 407.106 493.267M452.466 465.32C452.466 459.933 450.466 455.133 446.439 450.893C442.413 446.653 437.799 444.547 432.599 444.547C426.973 444.547 421.719 447.107 416.839 452.28C411.96 457.427 409.506 462.813 409.506 468.44C409.506 473.133 411.773 475.453 416.333 475.453H439.399C448.093 475.32 452.439 471.96 452.439 465.347" fill="#130C0E"/>
</g>
<g clip-path="url(#clip4_118_130)">
<path d="M150 547C194.183 547 230 511.183 230 467C230 422.817 194.183 387 150 387C105.817 387 70 422.817 70 467C70 511.183 105.817 547 150 547Z" fill="#F9AA8F"/>
<path d="M217.146 493.587C211.173 507.853 199.279 514.973 181.52 514.973C178.266 514.973 174.72 515.373 170.933 516.2C165.226 517.427 162.373 519.133 162.373 521.293C162.373 521.96 162.853 522.76 163.786 523.64C164.746 524.52 165.546 524.973 166.24 524.973C162.853 524.973 165.146 525.08 173.173 525.267C181.2 525.48 186.213 525.56 188.239 525.56C176.426 532.493 156.666 535.667 128.96 535.133C119.866 535 112.053 531 105.546 523.107C99.1465 515.64 95.9731 507.293 95.9731 498.067C95.9731 488.307 99.2531 479.987 105.866 473.107C112.453 466.253 120.64 462.813 130.4 462.813C132.56 462.813 135.466 463.293 139.066 464.227C142.666 465.187 145.066 465.64 146.293 465.64C151.306 465.64 157.573 463.56 165.04 459.427C172.506 455.293 176.053 453.213 175.626 453.213C174.266 467.48 169.52 477.053 161.36 481.933C155.52 485.32 152.613 488.653 152.613 491.907C152.613 493.933 153.84 495.587 156.266 496.787C158.16 497.747 160.266 498.227 162.586 498.227C166.106 498.227 169.573 496.067 172.986 491.72C176.373 487.373 177.866 483.427 177.466 479.907C177.066 475.827 177.333 470.947 178.293 465.24C178.56 463.613 179.546 461.613 181.253 459.24C182.96 456.867 184.479 455.4 185.839 454.867C185.839 456.093 185.413 458.12 184.506 460.973C183.626 463.827 183.173 465.933 183.173 467.293C183.173 470.28 183.973 472.6 185.626 474.227C188.079 473.267 190.239 470.227 192.133 465.053C193.759 461.107 194.719 457.32 194.986 453.64C189.279 453.373 183.813 450.787 178.586 445.907C173.36 441.027 170.746 435.72 170.746 430.013C170.746 429.053 170.88 428.12 171.146 427.16C171.946 428.387 173.173 430.28 174.8 432.867C177.12 436.253 178.88 437.96 180.106 437.96C181.733 437.96 182.56 436.253 182.56 432.867C182.56 428.52 181.413 424.573 179.093 421.053C176.506 416.84 173.173 414.733 169.12 414.733C167.226 414.733 164.373 415.747 160.56 417.8C156.746 419.827 153.28 420.867 150.16 420.867C149.2 420.867 144.986 419.64 137.52 417.187C150.693 415.027 157.28 413.053 157.28 411.293C157.28 406.68 148.24 403.56 130.186 401.933C128.426 401.8 125.173 401.533 120.4 401.107C120.933 400.44 124.8 399.693 132 398.867C138.106 398.2 142.4 397.853 144.826 397.853C177.146 397.853 197.653 413.533 206.346 444.92C207.839 443.693 208.586 441.613 208.586 438.733C208.586 435.027 207.493 430.333 205.333 424.68C204.506 422.493 203.226 419.187 201.466 414.76C212.586 428.947 218.159 442.387 218.159 455.08C218.159 461.773 216.586 467.827 213.466 473.293C211.439 476.973 207.626 481.693 202.053 487.427C196.479 493.16 192.693 497.587 190.639 500.733C198.106 498.707 203.013 497.133 205.306 496.04C210.453 493.747 215.146 490.28 219.359 485.64C219.359 487.4 218.613 490.067 217.119 493.587M128.346 413.533C128.346 415.987 126.986 417.533 124.266 418.227L118.96 419.053C117.066 420.013 114.266 423.747 110.613 430.253C110.213 428.227 109.6 425.373 108.773 421.693C107.546 421.827 105.52 422.92 102.666 424.947C101.44 425.907 99.4665 427.32 96.7465 429.213C97.5731 424.333 100.266 419.373 104.906 414.333C109.786 408.76 114.56 405.987 119.173 405.987C125.28 405.987 128.346 408.493 128.346 413.533ZM163.786 432.28C163.786 434.6 162.533 436.52 160.026 438.093C157.52 439.667 155.04 440.44 152.586 440.44C149.333 440.44 146.4 438.6 143.84 434.947C140.72 430.467 137.52 427.56 134.266 426.173C134.933 425.507 135.76 425.16 136.72 425.16C137.946 425.16 140 426.12 142.933 428.013C145.84 429.907 147.706 430.867 148.533 430.867C149.2 430.867 150.32 429.907 151.893 428.013C153.466 426.12 155.173 425.16 157.093 425.16C161.573 425.16 163.813 427.533 163.813 432.28" fill="#200000"/>
</g>
<g clip-path="url(#clip5_118_130)">
<path d="M467 317.5C511.183 317.5 547 281.683 547 237.5C547 193.317 511.183 157.5 467 157.5C422.817 157.5 387 193.317 387 237.5C387 281.683 422.817 317.5 467 317.5Z" fill="#9BD3AE"/>
<path d="M537.027 247.473C537.027 250.14 535.987 252.54 533.933 254.673C531.88 256.807 529.507 257.873 526.84 257.873C522.573 257.873 519.453 255.873 517.453 251.873L508.067 251.473C506.067 251.473 502.12 252.353 496.28 254.087C490.013 255.82 486.413 257.207 485.48 258.274C484.013 259.874 482.813 263.607 481.88 269.474C481.08 274.274 480.68 277.794 480.68 280.06C480.68 283.66 481.24 286.3 482.387 287.954C483.533 289.607 485.853 291.02 489.373 292.14C492.893 293.26 495.08 293.9 495.88 294.034C496.413 294.034 497.267 293.98 498.493 293.847H500.893C502.627 293.847 504.413 294.114 506.28 294.647C508.947 295.447 510.093 296.514 509.693 297.847C507.827 297.58 504.573 297.98 499.907 299.047L505.507 301.847C505.507 303.447 503.24 304.247 498.707 304.247C497.507 304.247 495.88 303.98 493.8 303.447C491.747 302.914 490.36 302.647 489.693 302.647H487.107C486.973 303.98 486.573 305.98 485.907 308.647C483.64 308.514 480.973 307.18 477.907 304.647C474.84 302.114 472.92 300.86 472.12 300.86C471.32 300.86 470.173 302.14 468.733 304.647C467.267 307.18 466.547 308.914 466.547 309.847C464.813 308.914 463.347 307.18 462.147 304.647C461.613 302.914 461.027 301.18 460.36 299.447C459.027 299.58 456.573 302.38 452.973 307.847H451.96C451.693 307.447 450.68 304.647 448.973 299.447C444.84 298.114 440.973 297.447 437.373 297.447C435.64 297.447 432.973 297.847 429.373 298.647L423.773 298.247C424.573 297.447 426.893 295.927 430.76 293.66C435.293 290.994 438.76 289.66 441.16 289.66C441.56 289.66 442.093 289.74 442.76 289.874C443.427 290.007 443.96 290.087 444.36 290.087C445.293 290.087 446.787 289.58 448.867 288.594C450.92 287.607 452.12 286.7 452.467 285.9C452.813 285.1 452.973 283.02 452.973 279.714C452.973 272.114 450.973 266.46 446.973 262.727C443.507 259.394 437.773 256.994 429.773 255.527C427.64 263.127 421.64 266.914 411.8 266.914C408.6 266.914 405.4 264.994 402.2 261.127C398.92 257.18 397.32 253.66 397.32 250.46C397.32 245.527 399.373 241.473 403.506 238.273C400.173 234.807 398.52 231.287 398.52 227.687C398.52 224.353 399.56 221.42 401.613 218.887C403.666 216.353 406.387 214.887 409.72 214.487C409.453 210.22 410.84 207.287 413.907 205.687C412.44 204.22 411.72 201.633 411.72 197.9C411.72 193.5 413.187 189.847 416.12 186.913C419.053 183.98 422.707 182.513 427.107 182.513C431.907 182.513 435.827 184.193 438.893 187.527C442.76 174.327 451.08 167.74 463.88 167.74C470.547 167.74 476.413 170.407 481.48 175.74C483.347 177.74 484.28 178.807 484.28 178.94C482.68 178.94 483.48 178.647 486.68 178.033C489.88 177.447 492.2 177.127 493.667 177.127C498.867 177.127 503.453 179.047 507.453 182.913C510.92 186.38 513.32 190.78 514.653 196.113C515.587 196.247 517.053 196.647 519.053 197.313C521.987 198.78 523.453 201.313 523.453 204.913C523.453 205.58 522.92 206.86 521.853 208.7C530.387 213.5 534.653 220.167 534.653 228.7C534.653 231.1 533.72 234.433 531.853 238.7C535.32 240.7 537.053 243.633 537.053 247.5M454.707 256.3V253.713C454.707 250.647 453.213 247.847 450.2 245.313C447.213 242.78 444.173 241.527 441.107 241.527C437.373 241.527 433.907 242.38 430.707 244.113C437.773 243.713 445.773 247.793 454.68 256.3M451.08 231.527C449.08 229.26 447.347 226.94 445.88 224.54C440.28 226.007 437.48 227.66 437.48 229.527C439.08 229.393 441.4 229.687 444.467 230.433C447.533 231.18 449.72 231.527 451.08 231.527ZM463.267 225.34V216.54C460.067 216.007 458.12 215.74 457.48 215.74V218.727L463.267 225.313M489.24 219.713C487.64 219.047 484.653 217.713 480.253 215.713V232.913C486.52 229.313 489.507 224.913 489.24 219.713ZM500.227 243.313L495.827 237.927C493.16 239.793 490.467 241.687 487.72 243.633C484.973 245.553 482.627 247.74 480.627 250.14C486.627 246.94 493.16 244.673 500.2 243.34" fill="#00160B"/>
</g>
</g>
<defs>
<clipPath id="clip0_118_130">
<rect width="547" height="547" fill="white"/>
</clipPath>
<clipPath id="clip1_118_130">
<rect width="160" height="160" fill="white" transform="translate(193.5)"/>
</clipPath>
<clipPath id="clip2_118_130">
<rect width="160" height="160" fill="white" transform="translate(0 157.5)"/>
</clipPath>
<clipPath id="clip3_118_130">
<rect width="160" height="160" fill="white" transform="translate(317 387)"/>
</clipPath>
<clipPath id="clip4_118_130">
<rect width="160" height="160" fill="white" transform="translate(70 387)"/>
</clipPath>
<clipPath id="clip5_118_130">
<rect width="160" height="160" fill="white" transform="translate(387 157.5)"/>
</clipPath>
</defs>
</svg>
